<svg width="43" height="32" viewBox="0 0 43 32" fill="none" xmlns="http://www.w3.org/2000/svg">
<path d="M19.1091 22.292C19.1091 27.057 15.8491 30.567 10.8341 30.567C5.81913 30.567 1.80713 26.43 1.80713 19.66C1.80713 10.507 8.20113 3.23496 16.9771 1.98096V7.24696C12.0881 8.24996 8.57713 11.51 8.57713 15.522C9.45513 15.021 10.5831 14.645 12.0871 14.645C15.9741 14.645 19.1091 17.403 19.1091 22.292ZM41.5511 22.292C41.5511 27.057 38.1661 30.567 33.2761 30.567C28.1361 30.567 24.1241 26.43 24.1241 19.66C24.1241 10.507 30.6431 3.23496 39.4201 1.98096V7.24696C34.5301 8.24996 31.0191 11.51 31.0191 15.397C31.8971 14.895 33.0251 14.645 34.4051 14.645C38.2911 14.645 41.5511 17.403 41.5511 22.292Z" fill="#FF9924"/>
</svg>
