<svg width="36" height="36" viewBox="0 0 36 36" fill="none" xmlns="http://www.w3.org/2000/svg">
<path d="M22.355 15.4081C21.9083 14.798 21.2812 14.3438 20.5622 14.1096C19.8433 13.8753 19.0689 13.873 18.3486 14.1028C17.2454 14.4512 16.3163 15.5201 15.6736 16.3934C15.0319 15.5225 14.1058 14.4506 12.9985 14.1028C12.2781 13.8734 11.5039 13.876 10.7851 14.1102C10.0663 14.3444 9.43909 14.7984 8.99207 15.4081C8.90011 15.5381 8.81428 15.6724 8.73485 15.8105C8.20602 16.7703 8.01444 17.8798 8.19076 18.9615C8.36709 20.0431 8.90112 21.0344 9.70743 21.7766L15.2688 27.1272C15.377 27.2312 15.5212 27.2893 15.6712 27.2893C15.8213 27.2893 15.9655 27.2312 16.0736 27.1272L21.635 21.7766C22.4413 21.0344 22.9754 20.0431 23.1517 18.9615C23.328 17.8798 23.1365 16.7703 22.6076 15.8105C22.5321 15.6711 22.4477 15.5367 22.355 15.4081ZM20.8355 20.9393L15.6776 25.9026L10.5186 20.9393C9.89978 20.3766 9.48747 19.6227 9.34758 18.7981C9.20769 17.9735 9.34829 17.1258 9.74691 16.3905C9.80904 16.2843 9.87581 16.1797 9.94723 16.0781C10.2508 15.6683 10.6754 15.3642 11.1611 15.2087C11.6468 15.0533 12.1691 15.0543 12.6542 15.2118C13.6947 15.5393 14.7103 17.0199 15.1992 17.7318C15.2554 17.8054 15.3278 17.865 15.4108 17.906C15.4937 17.947 15.5851 17.9684 15.6776 17.9684C15.7702 17.9684 15.8615 17.947 15.9445 17.906C16.0275 17.865 16.0999 17.8054 16.1561 17.7318C16.645 17.0199 17.6605 15.5393 18.701 15.2118C19.1861 15.0548 19.7082 15.054 20.1938 15.2095C20.6794 15.3651 21.1038 15.6691 21.4074 16.0787C21.4794 16.1809 21.5464 16.2854 21.6083 16.3923C22.0066 17.1273 22.147 17.9747 22.0071 18.7989C21.8673 19.6232 21.4551 20.3768 20.8367 20.9393H20.8355Z" fill="#EB1400"/>
<path d="M28.4516 10.4508H27.871V9.87012C27.871 9.40813 27.6874 8.96506 27.3608 8.63839C27.0341 8.31171 26.591 8.12819 26.129 8.12819H12.7742V4.88528L14.1294 3.53006C14.1724 3.48709 14.2084 3.43773 14.2363 3.38373C14.4447 2.97473 14.5394 2.51721 14.5104 2.05906C14.4814 1.60091 14.3298 1.15898 14.0714 0.779541C13.8504 0.459615 13.5321 0.219556 13.1637 0.0950637C12.7953 -0.0294289 12.3967 -0.0317051 12.0269 0.0885736C11.6402 0.230762 11.2973 0.471556 11.0323 0.78709C10.767 0.472194 10.4242 0.232013 10.0376 0.0903155C9.66785 -0.0297719 9.26922 -0.0274006 8.90091 0.0970772C8.5326 0.221555 8.21426 0.461501 7.99316 0.781283C7.73476 1.16072 7.58312 1.60265 7.55411 2.0608C7.52509 2.51895 7.61978 2.97648 7.82826 3.38548C7.85611 3.43947 7.89215 3.48883 7.9351 3.5318L9.29032 4.88528V8.12819H5.22581C4.76382 8.12819 4.32075 8.31171 3.99407 8.63839C3.6674 8.96506 3.48387 9.40813 3.48387 9.87012V24.9669C3.48523 26.2443 3.81093 27.5005 4.43044 28.6176C5.04994 29.7348 5.94297 30.6763 7.02581 31.354H1.16129C0.853297 31.354 0.557918 31.4763 0.340134 31.6941C0.12235 31.9119 0 32.2073 0 32.5153C0.000922314 33.439 0.368268 34.3246 1.02142 34.9777C1.67457 35.6309 2.56017 35.9982 3.48387 35.9992H27.871C28.7947 35.9982 29.6803 35.6309 30.3334 34.9777C30.9866 34.3246 31.3539 33.439 31.3548 32.5153C31.3548 32.2073 31.2325 31.9119 31.0147 31.6941C30.7969 31.4763 30.5015 31.354 30.1935 31.354H24.329C25.3278 30.728 26.166 29.8768 26.7763 28.8684C27.3867 27.86 27.7522 26.7227 27.8437 25.5475H28.4516C30.4536 25.5475 32.3735 24.7523 33.7891 23.3367C35.2047 21.9211 36 20.0011 36 17.9992C36 15.9972 35.2047 14.0772 33.7891 12.6616C32.3735 11.246 30.4536 10.4508 28.4516 10.4508ZM27.871 14.5153H28.4516C29.3756 14.5153 30.2617 14.8823 30.9151 15.5357C31.5684 16.189 31.9355 17.0752 31.9355 17.9992C31.9355 18.9231 31.5684 19.8093 30.9151 20.4626C30.2617 21.116 29.3756 21.483 28.4516 21.483H27.871V14.5153ZM10.2815 4.2338L8.82987 2.78219C8.73525 2.56528 8.69722 2.32791 8.71936 2.09231C8.7415 1.8567 8.82308 1.63057 8.95645 1.43509C9.03518 1.32257 9.14807 1.23842 9.27839 1.19512C9.40872 1.15181 9.54952 1.15167 9.67993 1.1947C9.82161 1.24115 10.123 1.41535 10.5509 2.06567C10.6071 2.14133 10.6802 2.2028 10.7644 2.24515C10.8486 2.2875 10.9415 2.30955 11.0357 2.30955C11.13 2.30955 11.2229 2.2875 11.3071 2.24515C11.3913 2.2028 11.4644 2.14133 11.5206 2.06567C11.9479 1.41767 12.2493 1.24348 12.3915 1.1947C12.5219 1.15161 12.6627 1.15167 12.793 1.19486C12.9233 1.23806 13.0362 1.32209 13.115 1.43451C13.2475 1.63009 13.3284 1.85603 13.35 2.09127C13.3716 2.32652 13.3333 2.56341 13.2387 2.77986L11.7871 4.23148C11.7322 4.28532 11.6885 4.34955 11.6586 4.42042C11.6287 4.49129 11.6131 4.56739 11.6129 4.64432V8.12819H10.4516V4.64432C10.4516 4.49033 10.3904 4.34267 10.2815 4.2338ZM30.1935 32.5153C30.1935 33.1313 29.9488 33.722 29.5133 34.1576C29.0777 34.5932 28.487 34.8379 27.871 34.8379H3.48387C2.86788 34.8379 2.27713 34.5932 1.84156 34.1576C1.40599 33.722 1.16129 33.1313 1.16129 32.5153H30.1935ZM26.7097 24.9669C26.7077 26.6602 26.0341 28.2837 24.8367 29.481C23.6394 30.6784 22.0159 31.352 20.3226 31.354H11.0323C9.33891 31.352 7.71548 30.6784 6.5181 29.481C5.32072 28.2837 4.64716 26.6602 4.64516 24.9669V9.87012C4.64516 9.71612 4.70634 9.56843 4.81523 9.45954C4.92412 9.35065 5.07181 9.28948 5.22581 9.28948H26.129C26.283 9.28948 26.4307 9.35065 26.5396 9.45954C26.6485 9.56843 26.7097 9.71612 26.7097 9.87012V24.9669ZM28.4516 24.3862H27.871V22.6443H28.4516C29.6836 22.6443 30.8651 22.1549 31.7362 21.2838C32.6074 20.4126 33.0968 19.2311 33.0968 17.9992C33.0968 16.7672 32.6074 15.5857 31.7362 14.7145C30.8651 13.8434 29.6836 13.354 28.4516 13.354H27.871V11.6121H28.4516C30.1456 11.6121 31.7702 12.285 32.968 13.4828C34.1658 14.6806 34.8387 16.3052 34.8387 17.9992C34.8387 19.6931 34.1658 21.3177 32.968 22.5155C31.7702 23.7133 30.1456 24.3862 28.4516 24.3862Z" fill="#EB1400"/>
</svg>
