<svg width="36" height="36" viewBox="0 0 36 36" fill="none" xmlns="http://www.w3.org/2000/svg">
<path d="M28.2 9.00479C27.9072 9.00659 27.6144 9.02459 27.3234 9.05879C26.7614 7.78862 25.944 6.6477 24.9221 5.70703C23.9002 4.76636 22.6957 4.04607 21.3834 3.59099C21.211 3.11005 20.9381 2.67133 20.583 2.30399C21.5563 1.54519 22.7669 1.15575 24 1.20479C24.1591 1.20479 24.3117 1.14157 24.4243 1.02905C24.5368 0.916527 24.6 0.763915 24.6 0.604785C24.6 0.445655 24.5368 0.293043 24.4243 0.180521C24.3117 0.0679992 24.1591 0.00478505 24 0.00478505C22.3817 -0.0583709 20.8014 0.505633 19.5888 1.57919C19.1347 1.35353 18.638 1.22679 18.1313 1.20732C17.6246 1.18785 17.1196 1.2761 16.6495 1.46624C16.1795 1.65638 15.7551 1.94408 15.4045 2.31035C15.0538 2.67661 14.7849 3.1131 14.6154 3.59099C13.3031 4.04607 12.0986 4.76636 11.0767 5.70703C10.0548 6.6477 9.23738 7.78862 8.6754 9.05879C8.38481 9.0248 8.09257 9.00677 7.8 9.00479C6.52454 9.00156 5.26784 9.31195 4.14056 9.90865C3.01327 10.5053 2.04997 11.37 1.33547 12.4266C0.620963 13.4831 0.177172 14.6991 0.0431673 15.9675C-0.0908378 17.236 0.0890524 18.5179 0.567 19.7004C0.388365 19.8675 0.245887 20.0695 0.148366 20.2938C0.0508449 20.5182 0.000350122 20.7602 0 21.0048C0.006 25.9728 4.032 29.9988 9 30.0048H16.2V32.4048H11.4C10.9226 32.4048 10.4648 32.5944 10.1272 32.932C9.78964 33.2696 9.6 33.7274 9.6 34.2048C9.6 34.6822 9.78964 35.14 10.1272 35.4776C10.4648 35.8151 10.9226 36.0048 11.4 36.0048H24.6C25.0774 36.0048 25.5352 35.8151 25.8728 35.4776C26.2104 35.14 26.4 34.6822 26.4 34.2048C26.4 33.7274 26.2104 33.2696 25.8728 32.932C25.5352 32.5944 25.0774 32.4048 24.6 32.4048H19.8V30.0048H27C31.968 29.9988 35.994 25.9728 36 21.0048C35.9997 20.7602 35.9492 20.5182 35.8516 20.2938C35.7541 20.0695 35.6116 19.8675 35.433 19.7004C35.9109 18.5179 36.0908 17.236 35.9568 15.9675C35.8228 14.6991 35.379 13.4831 34.6645 12.4266C33.95 11.37 32.9867 10.5053 31.8594 9.90865C30.7322 9.31195 29.4755 9.00156 28.2 9.00479ZM34.2 19.2048H26.238C27.3501 17.6854 28.0165 15.886 28.1622 14.0088C28.7304 14.172 29.2692 14.4228 29.76 14.7516C30.5295 15.3042 31.4526 15.6025 32.4 15.6048C33.1555 15.6293 33.9031 15.4443 34.56 15.0702C34.9428 16.4402 34.8637 17.8981 34.335 19.2186C34.29 19.215 34.2468 19.2048 34.2 19.2048ZM11.3022 19.2048C9.81852 17.5587 8.9982 15.4208 9 13.2048C9 12.921 9.0168 12.6402 9.0426 12.3648C9.91838 12.9426 10.9512 13.236 12 13.2048C13.3039 13.289 14.5959 12.9129 15.651 12.1422C16.319 11.6202 17.1536 11.3582 18 11.4048C18.8464 11.3582 19.681 11.6202 20.349 12.1422C21.4041 12.9129 22.6961 13.289 24 13.2048C25.0488 13.236 26.0816 12.9426 26.9574 12.3648C26.9832 12.6426 27 12.9234 27 13.2048C27.0018 15.4208 26.1815 17.5587 24.6978 19.2048H11.3022ZM28.2 10.2048C29.4349 10.2065 30.6445 10.5546 31.6914 11.2096C32.7382 11.8645 33.5803 12.8001 34.122 13.9098C33.6207 14.2653 33.0135 14.4398 32.4 14.4048C31.673 14.3998 30.9665 14.1629 30.3834 13.7286C29.7146 13.2796 28.9687 12.9578 28.1832 12.7794C28.1489 11.9129 28.0047 11.0542 27.7542 10.224C27.9 10.2144 28.05 10.2048 28.2 10.2048ZM18 2.40479C18.264 2.40779 18.5262 2.45519 18.7752 2.54459C18.7353 2.60712 18.6979 2.67117 18.663 2.73659C18.6173 2.82808 18.5957 2.92975 18.6003 3.03193C18.605 3.13411 18.6356 3.23341 18.6894 3.3204C18.7432 3.40739 18.8184 3.47919 18.9078 3.52896C18.9971 3.57873 19.0977 3.60483 19.2 3.60479C19.425 3.60479 19.632 3.47879 19.7358 3.27959C19.7394 3.27179 19.755 3.24359 19.7766 3.20759C20.1403 3.61692 20.3525 4.1387 20.3777 4.6857C20.4029 5.23271 20.2396 5.77179 19.9151 6.21284C19.5905 6.65389 19.1244 6.97018 18.5947 7.10884C18.065 7.2475 17.5037 7.20012 17.0047 6.97463C16.5057 6.74915 16.0992 6.35921 15.8532 5.87001C15.6072 5.3808 15.5365 4.82197 15.653 4.28693C15.7696 3.75189 16.0662 3.27306 16.4934 2.93048C16.9206 2.5879 17.4524 2.40233 18 2.40479ZM14.4078 4.95659C14.4457 5.88389 14.8407 6.76062 15.5103 7.40333C16.1798 8.04604 17.0719 8.40495 18 8.40495C18.9281 8.40495 19.8202 8.04604 20.4897 7.40333C21.1593 6.76062 21.5543 5.88389 21.5922 4.95659C22.856 5.50013 23.9771 6.32835 24.868 7.37663C25.7589 8.42491 26.3955 9.66489 26.7282 10.9998C26.3653 11.3434 25.9363 11.6097 25.4673 11.7825C24.9983 11.9552 24.4991 12.0309 24 12.0048C22.9346 12.0854 21.8758 11.7803 21.0168 11.145C20.1499 10.4927 19.084 10.1605 18 10.2048C16.916 10.1605 15.8501 10.4927 14.9832 11.145C14.1242 11.7803 13.0654 12.0854 12 12.0048C11.5009 12.0309 11.0017 11.9552 10.5327 11.7825C10.0637 11.6097 9.63473 11.3434 9.2718 10.9998C9.60446 9.66489 10.2411 8.42491 11.132 7.37663C12.0229 6.32835 13.144 5.50013 14.4078 4.95659ZM7.8 10.2048C7.95 10.2048 8.1 10.2144 8.2458 10.224C7.99527 11.0542 7.85112 11.9129 7.8168 12.7794C7.0308 12.9576 6.2856 13.2798 5.6166 13.7286C5.03353 14.1629 4.32705 14.3998 3.6 14.4048C2.98648 14.4398 2.37926 14.2653 1.878 13.9098C2.41966 12.8001 3.26178 11.8645 4.30865 11.2096C5.35552 10.5546 6.56513 10.2065 7.8 10.2048ZM1.2 16.8048C1.2024 16.2186 1.2828 15.6348 1.44 15.0702C2.09687 15.4443 2.84446 15.6293 3.6 15.6048C4.54742 15.6025 5.47045 15.3042 6.24 14.7516C6.7299 14.4228 7.26792 14.1723 7.8348 14.0088C7.98138 15.8863 8.64879 17.6858 9.762 19.2048H1.8C1.7532 19.2048 1.71 19.215 1.6638 19.2186C1.3586 18.4504 1.20125 17.6314 1.2 16.8048ZM25.2 34.2048C25.2 34.3639 25.1368 34.5165 25.0243 34.6291C24.9117 34.7416 24.7591 34.8048 24.6 34.8048H11.4C11.2409 34.8048 11.0883 34.7416 10.9757 34.6291C10.8632 34.5165 10.8 34.3639 10.8 34.2048C10.8 34.0457 10.8632 33.893 10.9757 33.7805C11.0883 33.668 11.2409 33.6048 11.4 33.6048H24.6C24.7591 33.6048 24.9117 33.668 25.0243 33.7805C25.1368 33.893 25.2 34.0457 25.2 34.2048ZM18.6 32.4048H17.4V30.0048H18.6V32.4048ZM27 28.8048H9C4.6944 28.8 1.2048 25.3104 1.2 21.0048C1.2 20.8457 1.26321 20.693 1.37574 20.5805C1.48826 20.468 1.64087 20.4048 1.8 20.4048H34.2C34.3591 20.4048 34.5117 20.468 34.6243 20.5805C34.7368 20.693 34.8 20.8457 34.8 21.0048C34.7952 25.3104 31.3056 28.8 27 28.8048Z" fill="#EB1400"/>
<path d="M11.4008 10.8045H12.0008C12.1599 10.8045 12.3125 10.7413 12.425 10.6288C12.5376 10.5163 12.6008 10.3637 12.6008 10.2045C12.6008 10.0454 12.5376 9.8928 12.425 9.78028C12.3125 9.66775 12.1599 9.60454 12.0008 9.60454H11.4008C11.2417 9.60454 11.089 9.66775 10.9765 9.78028C10.864 9.8928 10.8008 10.0454 10.8008 10.2045C10.8008 10.3637 10.864 10.5163 10.9765 10.6288C11.089 10.7413 11.2417 10.8045 11.4008 10.8045ZM13.2008 9.00454C13.3599 9.00451 13.5125 8.94127 13.625 8.82874L14.225 8.22874C14.3343 8.11558 14.3948 7.96402 14.3934 7.8067C14.392 7.64938 14.3289 7.49889 14.2177 7.38765C14.1064 7.27641 13.9559 7.2133 13.7986 7.21194C13.6413 7.21057 13.4897 7.27105 13.3766 7.38034L12.7766 7.98034C12.6927 8.06425 12.6356 8.17115 12.6124 8.28752C12.5893 8.40389 12.6012 8.52451 12.6466 8.63413C12.692 8.74375 12.7689 8.83745 12.8675 8.90338C12.9662 8.96931 13.0821 9.00452 13.2008 9.00454ZM24.0008 10.8045H24.6008C24.7599 10.8045 24.9125 10.7413 25.025 10.6288C25.1376 10.5163 25.2008 10.3637 25.2008 10.2045C25.2008 10.0454 25.1376 9.8928 25.025 9.78028C24.9125 9.66775 24.7599 9.60454 24.6008 9.60454H24.0008C23.8417 9.60454 23.689 9.66775 23.5765 9.78028C23.464 9.8928 23.4008 10.0454 23.4008 10.2045C23.4008 10.3637 23.464 10.5163 23.5765 10.6288C23.689 10.7413 23.8417 10.8045 24.0008 10.8045ZM22.3766 8.82874C22.4897 8.93804 22.6413 8.99851 22.7986 8.99715C22.9559 8.99578 23.1064 8.93268 23.2177 8.82143C23.3289 8.71019 23.392 8.5597 23.3934 8.40238C23.3948 8.24506 23.3343 8.0935 23.225 7.98034L22.625 7.38034C22.5118 7.27105 22.3603 7.21057 22.2029 7.21194C22.0456 7.2133 21.8951 7.27641 21.7839 7.38765C21.6726 7.49889 21.6095 7.64938 21.6082 7.8067C21.6068 7.96402 21.6673 8.11558 21.7766 8.22874L22.3766 8.82874Z" fill="#EB1400"/>
</svg>
