<svg width="36" height="36" viewBox="0 0 36 36" fill="none" xmlns="http://www.w3.org/2000/svg">
<path d="M19.0506 13.2183C14.1985 12.9123 10.6287 15.6841 9.35382 20.6968C9.10934 21.6552 10.5597 22.0317 10.8072 21.0672C11.8751 16.875 14.6499 14.4527 19.0041 14.7167C19.1541 14.6912 20.0241 14.8382 20.666 14.0672L30.9388 2.16107C31.6812 1.30763 33.0986 1.26264 33.8996 2.03958C34.0976 2.23657 34.2528 2.47228 34.3556 2.73199C34.4584 2.9917 34.5065 3.26982 34.497 3.54896C34.4874 3.82811 34.4203 4.10228 34.3 4.35433C34.1797 4.60639 34.0086 4.83091 33.7976 5.01387L21.8989 15.2806C21.6786 15.4688 21.5047 15.7053 21.3907 15.9717C21.2768 16.2381 21.2259 16.5272 21.242 16.8165C21.3455 18.5339 21.071 20.0203 20.4275 21.2337C19.9656 22.1067 21.29 22.8071 21.7534 21.9372C22.5274 20.4748 22.8589 18.7214 22.7404 16.737C22.7367 16.6783 22.7466 16.6195 22.7692 16.5652C22.7919 16.5108 22.8266 16.4624 22.8709 16.4236L34.783 6.14629C35.1495 5.82829 35.4466 5.43818 35.6557 5.00029C35.8648 4.5624 35.9814 4.08612 35.9983 3.60116C36.0152 3.1162 35.932 2.63297 35.7539 2.18159C35.5757 1.73022 35.3065 1.32039 34.963 0.977658C33.5381 -0.405243 31.0993 -0.304751 29.8079 1.17564L19.5261 13.0938C19.3911 13.2558 19.2021 13.2033 19.0506 13.2183Z" fill="#EB1400"/>
<path d="M29.5719 12.1579C28.63 11.8384 28.15 13.2573 29.0874 13.5768C32.4757 14.7332 34.4975 16.3696 34.4975 17.9565C34.4975 20.7943 27.721 23.9561 17.9987 23.9561C8.27641 23.9561 1.49989 20.7943 1.49989 17.9565C1.49989 15.1187 8.27641 11.9569 17.9987 11.9569C18.3557 11.9569 18.7097 11.9614 19.0606 11.9704C20.0611 11.9884 20.0821 10.4945 19.0966 10.4705C18.7307 10.4615 18.3647 10.457 17.9987 10.457C7.90594 10.457 0 13.7508 0 17.9565C0.00899936 28.8907 7.0735 35.9552 17.9987 35.9552C28.9239 35.9552 35.9884 28.8907 35.9974 17.9565C35.9974 15.6317 33.7161 13.5723 29.5719 12.1579ZM17.9987 34.4553C7.50246 34.4553 2.8438 28.0973 1.76087 21.2263C4.63017 23.7476 10.7392 25.456 17.9987 25.456C25.2582 25.456 31.3673 23.7476 34.2366 21.2263C33.1536 28.0973 28.495 34.4553 17.9987 34.4553Z" fill="#EB1400"/>
</svg>
