<svg width="55" height="33" viewBox="0 0 55 33" fill="none" xmlns="http://www.w3.org/2000/svg">
<g clip-path="url(#clip0_427_707)">
<g clip-path="url(#clip1_427_707)">
<path d="M52.1967 29.0714C51.7108 28.3195 51.0995 27.4412 50.2995 26.4489C49.4991 25.4582 48.5081 24.352 47.2486 23.1803C45.9882 22.0117 44.4577 20.7747 42.57 19.5819C40.6835 18.3935 38.4376 17.248 35.7766 16.3438C34.6305 15.9551 33.6011 15.6836 32.6816 15.4834C31.7626 15.2842 30.9545 15.1556 30.24 15.0691C28.8266 14.899 27.7864 14.8493 26.9397 14.8407C26.8003 14.8396 26.6679 14.8396 26.5379 14.8396C25.9565 13.9829 25.2829 13.2505 24.5906 12.6167C23.5966 11.7101 22.5542 10.999 21.5302 10.4143C20.5049 9.83158 19.4955 9.37526 18.5267 9.00732C16.5867 8.27402 14.8153 7.88295 13.2628 7.64637C11.7076 7.4139 10.3651 7.34318 9.22578 7.33495C8.086 7.32824 7.14781 7.3836 6.38289 7.45047C5.75779 7.50547 5.25056 7.56854 4.8406 7.62566C6.48909 6.69142 8.06914 5.79421 8.30038 5.64306C9.33112 4.97035 9.20855 3.16101 8.74689 3.42836C7.82508 3.96349 2.97411 7.19208 1.18482 8.38897C0.92818 8.56072 0.566545 9.6734 0.857824 9.80016C0.871309 9.82197 0.887159 9.84118 0.909371 9.85811C1.79594 10.5159 6.70157 13.4371 8.54369 14.6962C8.83496 14.8958 10.1745 14.4357 9.81328 14.0634C9.10971 13.3389 6.67588 11.4777 4.88368 10.1485C4.91725 10.1425 4.95081 10.1364 4.98631 10.1293C5.39652 10.0567 5.93734 9.96721 6.63782 9.88533C7.33885 9.80443 8.19996 9.72967 9.24685 9.70923C10.2933 9.6903 11.528 9.72557 12.9587 9.90391C14.3867 10.0864 16.0169 10.4096 17.7901 11.0359C18.6752 11.3498 19.5954 11.7424 20.5203 12.2435C21.4442 12.7451 22.3779 13.3574 23.2496 14.1206C23.5353 14.3717 23.8154 14.6401 24.0824 14.9259L22.6331 14.9942C22.2647 15.014 21.6341 15.0478 20.8021 15.1587C19.9721 15.2709 18.9363 15.4613 17.7939 15.848C17.2232 16.0411 16.628 16.2861 16.0295 16.5956C15.4329 16.904 14.8195 17.278 14.2467 17.7723C13.9613 18.0201 13.6854 18.2984 13.4389 18.6202C13.1933 18.9415 12.9738 19.307 12.8242 19.7201C12.6726 20.1318 12.5955 20.5924 12.6266 21.0575C12.6563 21.5223 12.7952 21.982 13.0116 22.3868C13.2276 22.7932 13.5147 23.1469 13.8353 23.4488C14.1563 23.7517 14.5113 24.0036 14.8799 24.2161C15.6204 24.6403 16.4157 24.9075 17.2092 25.0761C18.0047 25.2436 18.8019 25.3094 19.5773 25.3068C20.3541 25.3022 21.105 25.233 21.8329 25.109C23.285 24.8591 24.6283 24.3855 25.7253 23.6808C26.272 23.3288 26.7556 22.9164 27.1422 22.4536C27.5285 21.9923 27.8105 21.4769 27.9693 20.9757C28.0446 20.737 28.1 20.4902 28.127 20.2427C28.1415 20.1184 28.1495 19.9939 28.1526 19.8697C28.1543 19.75 28.1541 19.6518 28.1504 19.5428C28.139 19.1151 28.0906 18.6941 28.0139 18.2864C27.8676 17.5244 27.6165 16.8096 27.3016 16.1561C28.0277 16.2679 28.8996 16.408 30.0213 16.601C30.697 16.7181 31.4625 16.8641 32.3348 17.064C33.206 17.2644 34.1854 17.5192 35.2832 17.8673C37.8165 18.6732 39.9734 19.7051 41.8019 20.783C43.6311 21.8643 45.1349 22.9924 46.3876 24.0631C47.6405 25.1364 48.6442 26.1538 49.4698 27.0666C50.2945 27.9825 50.9415 28.7948 51.4656 29.4922C51.9902 30.1905 52.3908 30.7743 52.7097 31.2507C53.0277 31.7277 53.2619 32.0983 53.4401 32.3803L53.9624 33.2178C54.0377 33.3479 54.4528 33.3045 54.3157 33.0391C54.2902 32.9934 54.211 32.7747 53.9294 32.1715C53.6406 31.5736 53.1631 30.5795 52.1967 29.0714ZM25.5091 16.899C25.7969 17.4451 26.0217 18.0355 26.1533 18.6551C26.2189 18.9656 26.2613 19.2827 26.2758 19.6066C26.28 19.6846 26.2818 19.7743 26.2821 19.843C26.2827 19.9078 26.2793 19.9723 26.2734 20.0368C26.2626 20.1654 26.2354 20.2943 26.1987 20.4221C26.1193 20.6899 25.9719 20.9908 25.7296 21.2974C25.4884 21.6036 25.1547 21.9129 24.7416 22.1965C23.917 22.7666 22.7884 23.2234 21.5235 23.4846C20.2569 23.7429 18.8459 23.8408 17.4883 23.6088C16.8107 23.4927 16.1455 23.2918 15.5564 22.9833C14.9698 22.6771 14.4584 22.2549 14.1655 21.7499C13.8678 21.2475 13.8087 20.678 13.9885 20.1254C14.1637 19.5716 14.5559 19.0572 15.0148 18.628C15.477 18.1956 16.0042 17.8405 16.5408 17.5363C17.0748 17.2322 17.6132 16.9858 18.1353 16.7855C19.1795 16.3848 20.1512 16.1664 20.9382 16.0298C21.7262 15.895 22.334 15.8408 22.6875 15.8127C23.5059 15.7504 24.1412 15.7727 24.7724 15.8241C24.7939 15.8261 24.8154 15.8281 24.8369 15.8301C25.0829 16.1673 25.3099 16.5228 25.5091 16.899Z" fill="white"/>
</g>
</g>
<defs>
<clipPath id="clip0_427_707">
<rect width="55" height="33" fill="white"/>
</clipPath>
<clipPath id="clip1_427_707">
<rect width="35.4696" height="48.262" fill="white" transform="translate(0 8.32495) rotate(-29.2382)"/>
</clipPath>
</defs>
</svg>
