<svg width="57" height="137" viewBox="0 0 57 137" fill="none" xmlns="http://www.w3.org/2000/svg">
<path d="M32.9258 16.1016L18.9336 1.92188V16.1016H17.4688V0H19.0859L33.0781 14.2266V0H34.5195V16.1016H32.9258Z" fill="white"/>
<path d="M19.6484 56.1016V40H33.0664V41.3711H21.2422V46.9141H32.4688V48.2734H21.2422V54.7305H33.2422V56.1016H19.6484Z" fill="white"/>
<path d="M26 88.8242L19.0625 96.1016H17.2109L25.0859 87.8398L17.5977 80H19.4492L26 86.8906L32.5742 80H34.4258L26.9375 87.8398L34.8008 96.1016H32.9609L26 88.8242Z" fill="white"/>
<path d="M26.7266 121.336V136.102H25.2734V121.336H17.9492V120H34.0508V121.336H26.7266Z" fill="white"/>
<path d="M43.8281 58.9776L55.0234 68.1016L43.8281 77.2255" stroke="white" stroke-width="2" stroke-linecap="round" stroke-linejoin="round"/>
<line x1="52.9038" y1="68.0878" x2="1.1662" y2="68.0878" stroke="white" stroke-width="2" stroke-linecap="round"/>
</svg>
