<svg width="57" height="137" viewBox="0 0 57 137" fill="none" xmlns="http://www.w3.org/2000/svg">
<path d="M41.5781 4.94531C41.5781 5.75 41.4453 6.46094 41.1797 7.07812C40.9219 7.69531 40.5117 8.21484 39.9492 8.63672C39.3867 9.05859 38.6602 9.37891 37.7695 9.59766C36.8867 9.80859 35.8203 9.91406 34.5703 9.91406H27.3398V16.1016H25.875V0H34.5703C35.8203 0 36.8867 0.109375 37.7695 0.328125C38.6602 0.539062 39.3867 0.851562 39.9492 1.26562C40.5117 1.67969 40.9219 2.19531 41.1797 2.8125C41.4453 3.42969 41.5781 4.14062 41.5781 4.94531ZM40.0664 4.94531C40.0664 4.17969 39.9375 3.5625 39.6797 3.09375C39.4297 2.625 39.0391 2.26562 38.5078 2.01562C37.9844 1.75781 37.3164 1.58594 36.5039 1.5C35.6992 1.41406 34.7422 1.37109 33.6328 1.37109H27.3398V8.54297H33.6328C34.0625 8.54297 34.5195 8.54688 35.0039 8.55469C35.4961 8.55469 35.9805 8.53125 36.457 8.48438C36.9336 8.42969 37.3867 8.33984 37.8164 8.21484C38.2539 8.08203 38.6367 7.88281 38.9648 7.61719C39.3008 7.35156 39.5664 7.00391 39.7617 6.57422C39.9648 6.14453 40.0664 5.60156 40.0664 4.94531Z" fill="white"/>
<path d="M27.1758 49.2109V56.1016H25.7109V40H33.7266C34.9531 40 36.0039 40.0977 36.8789 40.293C37.7539 40.4805 38.4688 40.7695 39.0234 41.1602C39.5859 41.543 39.9961 42.0234 40.2539 42.6016C40.5117 43.1797 40.6406 43.8555 40.6406 44.6289C40.6406 45.832 40.3242 46.7969 39.6914 47.5234C39.0586 48.2422 38.0391 48.7344 36.6328 49L42.1289 56.1016H40.2891L35.0977 49.1641C34.8789 49.1797 34.6562 49.1914 34.4297 49.1992C34.2031 49.207 33.9688 49.2109 33.7266 49.2109H27.1758ZM39.1289 44.6289C39.1289 43.9414 39.0078 43.3867 38.7656 42.9648C38.5234 42.5352 38.1289 42.2031 37.582 41.9688C37.0352 41.7344 36.3164 41.5781 35.4258 41.5C34.543 41.4141 33.457 41.3711 32.168 41.3711H27.1758V47.8398H32.1211C33.4102 47.8398 34.5 47.8047 35.3906 47.7344C36.2812 47.6562 37.0039 47.5039 37.5586 47.2773C38.1133 47.043 38.5117 46.7188 38.7539 46.3047C39.0039 45.8828 39.1289 45.3242 39.1289 44.6289Z" fill="white"/>
<path d="M26.6484 96.1016V80H40.0664V81.3711H28.2422V86.9141H39.4688V88.2734H28.2422V94.7305H40.2422V96.1016H26.6484Z" fill="white"/>
<path d="M34.0547 136.102H31.8633L23.8242 120H25.4648L33 135.094L40.5352 120H42.1641L34.0547 136.102Z" fill="white"/>
<path d="M13.172 76.2255L1.97669 67.1016L13.172 57.9776" stroke="white" stroke-width="2" stroke-linecap="round" stroke-linejoin="round"/>
<line x1="4.09631" y1="67.1153" x2="55.8339" y2="67.1153" stroke="white" stroke-width="2" stroke-linecap="round"/>
</svg>
