<svg width="170" height="80" viewBox="0 0 170 80" fill="none" xmlns="http://www.w3.org/2000/svg">
<path d="M168.604 54.0795H162.349C162.303 53.532 161.853 53.1021 161.298 53.1021H159.495V49.0266C159.495 47.9175 158.597 47.0147 157.495 47.0147C157.167 47.0147 156.86 47.0949 156.586 47.2382V46.0201C156.586 44.59 155.43 43.4264 154.008 43.4264C153.456 43.4264 152.943 43.6041 152.524 43.905V40.9415C152.524 39.2763 151.177 37.9207 149.522 37.9207C148.798 37.9207 148.132 38.1815 147.613 38.6143V37.2815C147.613 35.6164 146.266 34.2607 144.611 34.2607C143.597 34.2607 142.7 34.7709 142.156 35.5505C141.612 34.7738 140.714 34.2607 139.7 34.2607C138.045 34.2607 136.698 35.6164 136.698 37.2815V45.9255H101.057C101.325 45.6074 101.641 45.3122 102.031 45.0514C103.333 44.1773 104.735 44.6416 105.863 45.0141C106.384 45.1861 106.874 45.3495 107.247 45.3495C107.911 45.3495 108.509 44.6444 108.683 44.375L108.728 44.4037C108.341 42.5866 107.942 40.9931 107.942 39.434C107.942 36.4045 114.588 27.1931 114.588 16.09C114.588 4.98692 104.994 0 98.0947 0H71.9025C65.0033 0 55.4095 4.98406 55.4095 16.09C55.4095 27.1931 62.0551 36.4045 62.0551 39.434C62.0551 40.9959 61.6563 42.5895 61.2689 44.4094L61.3174 44.3779C61.4883 44.6473 62.0865 45.3495 62.7502 45.3495C63.1233 45.3495 63.6133 45.1861 64.1346 45.0141C65.2626 44.6416 66.664 44.1773 67.9658 45.0514C68.3618 45.318 68.6865 45.6103 68.9628 45.9255H33.2993V37.2815C33.2993 35.6164 31.9519 34.2607 30.2969 34.2607C29.2828 34.2607 28.3856 34.7709 27.8415 35.5505C27.2974 34.7738 26.4001 34.2607 25.3861 34.2607C23.7311 34.2607 22.3837 35.6164 22.3837 37.2815V38.6143C21.8653 38.1815 21.1987 37.9207 20.4752 37.9207C18.8202 37.9207 17.4729 39.2763 17.4729 40.9415V43.905C17.0513 43.6041 16.5414 43.4264 15.9888 43.4264C14.5674 43.4264 13.4109 44.59 13.4109 46.0201V47.2382C13.1374 47.0978 12.8298 47.0147 12.5022 47.0147C11.3998 47.0147 10.5025 47.9175 10.5025 49.0266V53.1021H8.6994C8.14394 53.1021 7.69387 53.532 7.64829 54.0795H1.39578C0.626676 54.0795 0 54.7071 0 55.4838V58.7769C0 59.5507 0.623828 60.1813 1.39578 60.1813H7.64829C7.69387 60.7287 8.14394 61.1586 8.6994 61.1586H10.5025V65.2341C10.5025 66.3433 11.3998 67.2461 12.5022 67.2461C12.8298 67.2461 13.1374 67.1658 13.4109 67.0225V68.2406C13.4109 69.6708 14.5674 70.8344 15.9888 70.8344C16.5414 70.8344 17.0541 70.6567 17.4729 70.3558V73.3192C17.4729 74.9844 18.8202 76.34 20.4752 76.34C21.1987 76.34 21.8653 76.0792 22.3837 75.6465V76.9792C22.3837 78.6444 23.7311 80 25.3861 80C26.4001 80 27.2974 79.4898 27.8415 78.7103C28.3856 79.487 29.2828 80 30.2969 80C31.9519 80 33.2993 78.6444 33.2993 76.9792V65.5752C33.9744 66.1713 34.8546 66.5353 35.8231 66.5353H45.3115V75.122C45.3115 77.5209 47.2428 79.4641 49.627 79.4641H120.37C122.754 79.4641 124.686 77.5209 124.686 75.122V66.5353H134.174C135.143 66.5353 136.023 66.1713 136.698 65.5752V76.9792C136.698 78.6444 138.045 80 139.7 80C140.714 80 141.612 79.4898 142.156 78.7103C142.7 79.487 143.597 80 144.611 80C146.266 80 147.613 78.6444 147.613 76.9792V75.6465C148.132 76.0792 148.798 76.34 149.522 76.34C151.177 76.34 152.524 74.9844 152.524 73.3192V70.3558C152.946 70.6567 153.456 70.8344 154.008 70.8344C155.43 70.8344 156.586 69.6708 156.586 68.2406V67.0225C156.86 67.163 157.167 67.2461 157.495 67.2461C158.597 67.2461 159.495 66.3433 159.495 65.2341V61.1586H161.298C161.853 61.1586 162.303 60.7287 162.349 60.1813H168.604C169.373 60.1813 170 59.5536 170 58.7769V55.4838C170 54.7071 169.373 54.0795 168.604 54.0795ZM13.4166 60.8462C13.3738 61.4137 13.2399 63.3626 13.2086 65.8073C13.2086 65.8073 13.2086 65.8073 13.2058 65.8102C13.1687 62.8954 12.9836 60.6771 12.9836 60.6771C12.9836 60.6771 12.7984 62.9212 12.7614 65.8589C12.7244 62.9212 12.5392 60.6771 12.5392 60.6771C12.5392 60.6771 12.3541 62.9212 12.317 65.8589C12.28 62.9212 12.0948 60.6771 12.0948 60.6771C12.0948 60.6771 11.9097 62.9212 11.8727 65.8589C11.8356 62.9212 11.6505 60.6771 11.6505 60.6771C11.6505 60.6771 11.6277 60.9436 11.5992 61.4022V52.9445C11.6277 53.4059 11.6505 53.6696 11.6505 53.6696C11.6505 53.6696 11.8356 51.4255 11.8727 48.4849C11.9097 51.4226 12.0948 53.6696 12.0948 53.6696C12.0948 53.6696 12.28 51.4255 12.317 48.4878C12.3541 51.4255 12.5392 53.6696 12.5392 53.6696C12.5392 53.6696 12.7244 51.4255 12.7614 48.4849C12.7984 51.4226 12.9836 53.6696 12.9836 53.6696C12.9836 53.6696 13.1687 51.4255 13.2058 48.4849C13.2371 50.9526 13.371 52.9244 13.4137 53.4948V60.8462H13.4166ZM17.4786 63.417C17.4301 62.7951 17.3931 62.4569 17.3931 62.4569C17.3931 62.4569 17.1538 65.3602 17.1054 69.1635C17.057 65.3631 16.8177 62.4569 16.8177 62.4569C16.8177 62.4569 16.5784 65.3602 16.53 69.1635C16.4816 65.3631 16.2423 62.4569 16.2423 62.4569C16.2423 62.4569 16.003 65.3602 15.9546 69.1635C15.9062 65.3631 15.6669 62.4569 15.6669 62.4569C15.6669 62.4569 15.4276 65.3602 15.3792 69.1635C15.3308 65.3631 15.0915 62.4569 15.0915 62.4569C15.0915 62.4569 14.8522 65.343 14.8038 69.1262C14.8038 69.1262 14.8038 69.1262 14.8038 69.1233C14.7554 65.3402 14.5161 62.4541 14.5161 62.4541C14.5161 62.4541 14.5132 62.4827 14.5075 62.5257V51.8153C14.5104 51.8583 14.5161 51.8869 14.5161 51.8869C14.5161 51.8869 14.7554 48.9836 14.8038 45.1804C14.8522 48.9808 15.0915 51.8869 15.0915 51.8869C15.0915 51.8869 15.3308 48.9836 15.3792 45.1804C15.4276 48.9808 15.6669 51.8869 15.6669 51.8869C15.6669 51.8869 15.9062 48.9836 15.9546 45.1804C16.003 48.9808 16.2423 51.8869 16.2423 51.8869C16.2423 51.8869 16.4816 48.9836 16.53 45.1804C16.5784 48.9808 16.8177 51.8869 16.8177 51.8869C16.8177 51.8869 17.057 48.9836 17.1054 45.1804C17.1538 48.9808 17.3931 51.8869 17.3931 51.8869C17.3931 51.8869 17.4301 51.5487 17.4786 50.9268V63.417ZM22.3894 69.8083C22.2897 67.7992 22.1672 66.6643 22.1672 66.6643C22.1672 66.6643 21.8881 70.0347 21.834 74.4513C21.7798 70.0376 21.5007 66.6643 21.5007 66.6643C21.5007 66.6643 21.2215 70.0347 21.1674 74.4513C21.1133 70.0376 20.8341 66.6643 20.8341 66.6643C20.8341 66.6643 20.555 70.0348 20.5008 74.4485C20.4467 70.0348 20.1676 66.6643 20.1676 66.6643C20.1676 66.6643 19.8884 70.0347 19.8343 74.4513C19.7802 70.0376 19.501 66.6643 19.501 66.6643C19.501 66.6643 19.2219 70.0347 19.1677 74.4513C19.1136 70.0376 18.8345 66.6643 18.8345 66.6643C18.8345 66.6643 18.6835 68.0486 18.5809 70.4761V68.2377V46.0173V43.8649C18.6835 46.2924 18.8345 47.6767 18.8345 47.6767C18.8345 47.6767 19.1136 44.3062 19.1677 39.8897C19.2219 44.3034 19.501 47.6767 19.501 47.6767C19.501 47.6767 19.7802 44.3062 19.8343 39.8897C19.8884 44.3034 20.1676 47.6767 20.1676 47.6767C20.1676 47.6767 20.4467 44.3062 20.5008 39.8925C20.555 44.3062 20.8341 47.6767 20.8341 47.6767C20.8341 47.6767 21.1133 44.3062 21.1674 39.8897C21.2215 44.3034 21.5007 47.6767 21.5007 47.6767C21.5007 47.6767 21.7798 44.3062 21.834 39.8897C21.8881 44.3034 22.1672 47.6767 22.1672 47.6767C22.1672 47.6767 22.2926 46.5446 22.3894 44.5327V69.8083ZM27.3003 74.1045C27.1977 71.6799 27.0468 70.2956 27.0468 70.2956C27.0468 70.2956 26.7676 73.666 26.7135 78.0826C26.6594 73.6689 26.3802 70.2956 26.3802 70.2956C26.3802 70.2956 26.101 73.666 26.0469 78.0826C25.9928 73.6689 25.7136 70.2956 25.7136 70.2956C25.7136 70.2956 25.4345 73.666 25.3804 78.0797C25.3262 73.666 25.0471 70.2956 25.0471 70.2956C25.0471 70.2956 24.7679 73.666 24.7138 78.0826C24.6597 73.6689 24.3805 70.2956 24.3805 70.2956C24.3805 70.2956 24.1014 73.666 24.0473 78.0826C23.9931 73.6689 23.714 70.2956 23.714 70.2956C23.714 70.2956 23.5886 71.4305 23.4918 73.4396V73.3164V40.9415V40.9042C23.5915 42.9162 23.714 44.0483 23.714 44.0483C23.714 44.0483 23.9931 40.6778 24.0473 36.2612C24.1014 40.6749 24.3805 44.0483 24.3805 44.0483C24.3805 44.0483 24.6597 40.6778 24.7138 36.2612C24.7679 40.6749 25.0471 44.0483 25.0471 44.0483C25.0471 44.0483 25.3262 40.6778 25.3804 36.2641C25.4345 40.6778 25.7136 44.0483 25.7136 44.0483C25.7136 44.0483 25.9928 40.6778 26.0469 36.2612C26.101 40.6749 26.3802 44.0483 26.3802 44.0483C26.3802 44.0483 26.6594 40.6778 26.7135 36.2612C26.7676 40.6749 27.0468 44.0483 27.0468 44.0483C27.0468 44.0483 27.1977 42.664 27.3003 40.2393V74.1045ZM113.648 16.09C113.648 23.1835 110.785 29.6464 108.893 33.9225C107.794 36.4017 107.002 38.193 107.002 39.434C107.002 40.632 105.336 40.546 104.222 39.0872C102.875 37.3217 98.2172 30.681 98.2172 30.681L105.367 37.6369C105.367 37.6369 112.562 24.0089 112.562 16.2476C112.562 8.48637 106.145 3.14405 106.145 3.14405C110.255 5.47415 113.648 9.71017 113.648 16.09ZM107.105 13.5507C107.105 13.5507 110.349 20.5553 102.541 29.4486L101.177 28.265C108.233 20.647 107.105 13.5507 107.105 13.5507ZM100.24 1.76835C100.24 1.76835 91.4462 2.66829 85.3789 2.66829C79.3115 2.66829 70.4241 1.76835 70.4241 1.76835H100.24ZM72.1446 8.83316H97.8554C100.553 8.83316 105.883 9.96811 105.883 16.0269C105.883 22.0858 100.616 27.4481 98.2314 27.4481C94.6565 27.4481 92.0871 24.9862 85 24.9862C77.9129 24.9862 75.3435 27.4481 71.7686 27.4481C69.3844 27.4481 64.1175 22.0858 64.1175 16.0269C64.1175 9.96811 69.4499 8.83316 72.1446 8.83316ZM68.8232 28.2678L67.4588 29.4515C59.651 20.5553 62.8954 13.5535 62.8954 13.5535C62.8954 13.5535 61.7674 20.647 68.8232 28.2678ZM65.781 39.0872C64.6672 40.546 63.0008 40.632 63.0008 39.434C63.0008 38.193 62.2061 36.4017 61.1094 33.9225C59.2151 29.6464 56.3552 23.1835 56.3552 16.09C56.3552 9.71017 59.7478 5.47415 63.8611 3.14405C63.8611 3.14405 57.4434 8.48637 57.4434 16.2476C57.4434 24.0089 64.6387 37.6369 64.6387 37.6369L71.7885 30.681C71.7857 30.681 67.1284 37.3217 65.781 39.0872ZM85.7777 37.4793C90.6686 37.4793 94.7192 41.1679 95.3288 45.9255H93.8133C93.2151 42.0048 89.8397 38.9926 85.7777 38.9926C81.7157 38.9926 78.3401 42.0048 77.742 45.9255H76.2265C76.8361 41.1679 80.8839 37.4793 85.7777 37.4793ZM31.9889 70.0806C31.9889 70.0806 31.7098 73.4511 31.6557 77.8677C31.6015 73.4539 31.3224 70.0806 31.3224 70.0806C31.3224 70.0806 31.0432 73.4511 30.9891 77.8677C30.935 73.4539 30.6558 70.0806 30.6558 70.0806C30.6558 70.0806 30.3767 73.4511 30.3226 77.8648C30.2684 73.4511 29.9893 70.0806 29.9893 70.0806C29.9893 70.0806 29.7101 73.4511 29.656 77.8677C29.6019 73.4539 29.3227 70.0806 29.3227 70.0806C29.3227 70.0806 29.0436 73.4511 28.9894 77.8677C28.9353 73.4539 28.6562 70.0806 28.6562 70.0806C28.6562 70.0806 28.5052 71.4649 28.4026 73.8924V40.4485C28.5052 42.8761 28.6562 44.2604 28.6562 44.2604C28.6562 44.2604 28.9353 40.8899 28.9894 36.4733C29.0436 40.887 29.3227 44.2604 29.3227 44.2604C29.3227 44.2604 29.6019 40.8899 29.656 36.4733C29.7101 40.887 29.9893 44.2604 29.9893 44.2604C29.9893 44.2604 30.2684 40.8899 30.3226 36.4762C30.3767 40.8899 30.6558 44.2604 30.6558 44.2604C30.6558 44.2604 30.935 40.8899 30.9891 36.4733C31.0432 40.887 31.3224 44.2604 31.3224 44.2604C31.3224 44.2604 31.6015 40.8899 31.6557 36.4733C31.7098 40.887 31.9889 44.2604 31.9889 44.2604C31.9889 44.2604 32.1114 43.1283 32.2111 41.1163V45.9227H31.9975V62.6805C31.9975 63.1218 32.0744 63.5431 32.2111 63.9387V73.2247C32.1114 71.2156 31.9889 70.0806 31.9889 70.0806ZM141.609 73.8953C141.506 71.4678 141.355 70.0835 141.355 70.0835C141.355 70.0835 141.076 73.4539 141.022 77.8705C140.968 73.4568 140.689 70.0835 140.689 70.0835C140.689 70.0835 140.41 73.4539 140.355 77.8705C140.301 73.4568 140.022 70.0835 140.022 70.0835C140.022 70.0835 139.743 73.4539 139.689 77.8677C139.635 73.4539 139.356 70.0835 139.356 70.0835C139.356 70.0835 139.076 73.4539 139.022 77.8705C138.968 73.4568 138.689 70.0835 138.689 70.0835C138.689 70.0835 138.41 73.4539 138.356 77.8705C138.302 73.4568 138.022 70.0835 138.022 70.0835C138.022 70.0835 137.9 71.2156 137.8 73.2275V63.9415C137.937 63.546 138.014 63.1247 138.014 62.6833V45.9255H137.8V41.1192C137.9 43.1283 138.022 44.2632 138.022 44.2632C138.022 44.2632 138.302 40.8928 138.356 36.4762C138.41 40.8899 138.689 44.2632 138.689 44.2632C138.689 44.2632 138.968 40.8928 139.022 36.4762C139.076 40.8899 139.356 44.2632 139.356 44.2632C139.356 44.2632 139.635 40.8928 139.689 36.4791C139.743 40.8928 140.022 44.2632 140.022 44.2632C140.022 44.2632 140.301 40.8928 140.355 36.4762C140.41 40.8899 140.689 44.2632 140.689 44.2632C140.689 44.2632 140.968 40.8928 141.022 36.4762C141.076 40.8899 141.355 44.2632 141.355 44.2632C141.355 44.2632 141.506 42.8789 141.609 40.4514V73.8953ZM146.52 40.9415V73.3192V73.4425C146.42 71.4305 146.297 70.2984 146.297 70.2984C146.297 70.2984 146.018 73.6689 145.964 78.0855C145.91 73.6718 145.631 70.2984 145.631 70.2984C145.631 70.2984 145.352 73.6689 145.298 78.0855C145.243 73.6718 144.964 70.2984 144.964 70.2984C144.964 70.2984 144.685 73.6689 144.631 78.0826C144.577 73.6689 144.298 70.2984 144.298 70.2984C144.298 70.2984 144.019 73.6689 143.964 78.0855C143.91 73.6718 143.631 70.2984 143.631 70.2984C143.631 70.2984 143.352 73.6689 143.298 78.0855C143.244 73.6718 142.965 70.2984 142.965 70.2984C142.965 70.2984 142.814 71.6827 142.711 74.1074V40.2393C142.814 42.664 142.965 44.0483 142.965 44.0483C142.965 44.0483 143.244 40.6778 143.298 36.2612C143.352 40.6749 143.631 44.0483 143.631 44.0483C143.631 44.0483 143.91 40.6778 143.964 36.2612C144.019 40.6749 144.298 44.0483 144.298 44.0483C144.298 44.0483 144.577 40.6778 144.631 36.2641C144.685 40.6778 144.964 44.0483 144.964 44.0483C144.964 44.0483 145.243 40.6778 145.298 36.2612C145.352 40.6749 145.631 44.0483 145.631 44.0483C145.631 44.0483 145.91 40.6778 145.964 36.2612C146.018 40.6749 146.297 44.0483 146.297 44.0483C146.297 44.0483 146.423 42.9133 146.52 40.9042V40.9415ZM151.43 46.0173V68.2377V70.4761C151.328 68.0486 151.177 66.6643 151.177 66.6643C151.177 66.6643 150.898 70.0347 150.844 74.4513C150.79 70.0376 150.51 66.6643 150.51 66.6643C150.51 66.6643 150.231 70.0347 150.177 74.4513C150.123 70.0376 149.844 66.6643 149.844 66.6643C149.844 66.6643 149.565 70.0348 149.511 74.4485C149.456 70.0348 149.177 66.6643 149.177 66.6643C149.177 66.6643 148.898 70.0347 148.844 74.4513C148.79 70.0376 148.511 66.6643 148.511 66.6643C148.511 66.6643 148.232 70.0347 148.177 74.4513C148.123 70.0376 147.844 66.6643 147.844 66.6643C147.844 66.6643 147.722 67.7964 147.622 69.8083V44.5355C147.722 46.5446 147.844 47.6796 147.844 47.6796C147.844 47.6796 148.123 44.3091 148.177 39.8925C148.232 44.3062 148.511 47.6796 148.511 47.6796C148.511 47.6796 148.79 44.3091 148.844 39.8925C148.898 44.3062 149.177 47.6796 149.177 47.6796C149.177 47.6796 149.456 44.3091 149.511 39.8954C149.565 44.3091 149.844 47.6796 149.844 47.6796C149.844 47.6796 150.123 44.3091 150.177 39.8925C150.231 44.3062 150.51 47.6796 150.51 47.6796C150.51 47.6796 150.79 44.3091 150.844 39.8925C150.898 44.3062 151.177 47.6796 151.177 47.6796C151.177 47.6796 151.328 46.2953 151.43 43.8677V46.0173ZM155.492 62.5257C155.49 62.4827 155.484 62.4541 155.484 62.4541C155.484 62.4541 155.245 65.3402 155.196 69.1233C155.196 69.1233 155.196 69.1233 155.196 69.1262C155.148 65.343 154.909 62.4569 154.909 62.4569C154.909 62.4569 154.669 65.3602 154.621 69.1635C154.572 65.3631 154.333 62.4569 154.333 62.4569C154.333 62.4569 154.094 65.3602 154.045 69.1635C153.997 65.3631 153.758 62.4569 153.758 62.4569C153.758 62.4569 153.518 65.3602 153.47 69.1635C153.422 65.3631 153.182 62.4569 153.182 62.4569C153.182 62.4569 152.943 65.3602 152.895 69.1635C152.846 65.3631 152.607 62.4569 152.607 62.4569C152.607 62.4569 152.57 62.7951 152.521 63.417V50.9239C152.57 51.5459 152.607 51.8841 152.607 51.8841C152.607 51.8841 152.846 48.9808 152.895 45.1775C152.943 48.9779 153.182 51.8841 153.182 51.8841C153.182 51.8841 153.422 48.9808 153.47 45.1775C153.518 48.9779 153.758 51.8841 153.758 51.8841C153.758 51.8841 153.997 48.9808 154.045 45.1775C154.094 48.9779 154.333 51.8841 154.333 51.8841C154.333 51.8841 154.572 48.9808 154.621 45.1775C154.669 48.9779 154.909 51.8841 154.909 51.8841C154.909 51.8841 155.148 48.9808 155.196 45.1775C155.245 48.9779 155.484 51.8841 155.484 51.8841C155.484 51.8841 155.487 51.8554 155.492 51.8124V62.5257ZM158.404 61.4022C158.372 60.9408 158.352 60.6771 158.352 60.6771C158.352 60.6771 158.167 62.9212 158.13 65.8589C158.093 62.9212 157.908 60.6771 157.908 60.6771C157.908 60.6771 157.723 62.9212 157.686 65.8589C157.649 62.9212 157.464 60.6771 157.464 60.6771C157.464 60.6771 157.279 62.9212 157.241 65.8589C157.204 62.9212 157.019 60.6771 157.019 60.6771C157.019 60.6771 156.837 62.8983 156.797 65.8102C156.797 65.8102 156.797 65.8102 156.794 65.8073C156.763 63.3626 156.629 61.4137 156.586 60.8462V53.4948C156.629 52.9244 156.766 50.9526 156.794 48.4849C156.831 51.4226 157.016 53.6696 157.016 53.6696C157.016 53.6696 157.202 51.4255 157.239 48.4849C157.276 51.4226 157.461 53.6696 157.461 53.6696C157.461 53.6696 157.646 51.4255 157.683 48.4878C157.72 51.4255 157.905 53.6696 157.905 53.6696C157.905 53.6696 158.09 51.4255 158.127 48.4849C158.164 51.4226 158.35 53.6696 158.35 53.6696C158.35 53.6696 158.372 53.4031 158.401 52.9445V61.4022H158.404Z" fill="#6A6A6A"/>
<path d="M54.1221 76.0421C53.9654 76.3029 53.6863 76.5351 53.2875 76.7414C52.8887 76.9478 52.4215 77.0481 51.886 77.0481C51.2736 77.0481 50.7067 76.9335 50.1769 76.7071C49.6499 76.4778 49.1884 76.151 48.7953 75.7211C48.4022 75.2941 48.0918 74.7753 47.8639 74.1706C47.636 73.5659 47.5249 72.8866 47.5249 72.13C47.5249 71.3676 47.6445 70.6712 47.8867 70.0406C48.1259 69.413 48.4478 68.8713 48.8438 68.4213C49.2426 67.9685 49.6955 67.6188 50.2054 67.3666C50.7153 67.1144 51.2422 66.9883 51.7891 66.9883C52.2876 66.9883 52.7007 67.0399 53.0254 67.143C53.3501 67.2462 53.6094 67.3609 53.8087 67.4927C54.0081 67.6245 54.1591 67.7535 54.2617 67.8825C54.3642 68.0143 54.4411 68.106 54.4981 68.1605L54.7886 67.1545H56.8567V71.2759H54.3699C54.3614 70.9979 54.3129 70.7457 54.2246 70.5221C54.1363 70.2986 54.0195 70.1123 53.8714 69.9632C53.7233 69.8142 53.5552 69.6996 53.3701 69.6193C53.1849 69.5391 52.9912 69.5018 52.7861 69.5018C52.5098 69.5018 52.2506 69.5735 52.017 69.7168C51.7806 69.8601 51.5784 70.0521 51.4131 70.29C51.2479 70.5278 51.1169 70.8059 51.0257 71.1297C50.9346 71.4507 50.8862 71.7832 50.8862 72.13C50.8862 72.4825 50.9289 72.8178 51.0115 73.1302C51.0941 73.4426 51.2166 73.7149 51.379 73.947C51.5413 74.1792 51.7407 74.3626 51.9771 74.4973C52.2136 74.632 52.4842 74.7008 52.789 74.7008C53.1878 74.7008 53.484 74.632 53.6777 74.4973C53.8714 74.3626 54.0195 74.2021 54.1221 74.0158V73.4283H53.2761V71.9322H57.885V73.4283H57.3295V76.922H54.5522L54.1221 76.0421Z" fill="white"/>
<path d="M63.2718 71.5595C63.2804 71.4936 63.306 71.4105 63.3487 71.3073C63.3914 71.2042 63.437 71.0981 63.4883 70.9863C63.5396 70.8746 63.5937 70.7628 63.6478 70.651C63.7019 70.5392 63.7504 70.4418 63.7874 70.3587L64.5508 68.9486H63.7874V67.1602H67.5218V68.9486H66.7727L64.2033 73.4884V75.1077H64.9809V76.9248H60.5372V75.1077H61.3291V73.4597L58.6344 68.9486H57.9536V67.1602H62.7021V68.9486H61.9786L62.7847 70.4303C62.8047 70.4962 62.8331 70.5794 62.8759 70.6825C62.9186 70.7857 62.9613 70.8918 63.0069 71.0035C63.0525 71.1153 63.0952 71.2213 63.1322 71.3245C63.1693 71.4277 63.1977 71.5051 63.2148 71.5624H63.2718V71.5595Z" fill="white"/>
<path d="M77.3632 69.6164C77.3347 69.774 77.3034 69.946 77.2664 70.1323C77.2293 70.3185 77.1923 70.4962 77.1553 70.6711C77.1182 70.843 77.0812 71.0007 77.0442 71.1468C77.0071 71.2901 76.9787 71.4048 76.9616 71.4908L75.5031 76.9248H72.6005L71.0452 71.3503C71.0252 71.293 71.0024 71.2042 70.9768 71.078C70.9483 70.9519 70.9227 70.8115 70.8942 70.651C70.8657 70.4934 70.8372 70.3243 70.8116 70.1495C70.7831 69.9718 70.766 69.7969 70.7575 69.6192H70.7005V75.1249H71.4924V76.9277H67.7295V75.1249H68.4787V68.9629H67.7437V67.1602H73.005L74.4064 72.385L75.7395 67.1602H81.0293V68.9629H80.2659V75.1106H81.0293V76.9277H76.6425V75.1106H77.4344V69.6164H77.3632Z" fill="white"/>
<path d="M94.1638 75.1766C93.9245 75.4374 93.6539 75.6867 93.3576 75.9246C93.0614 76.1625 92.7367 76.3717 92.3863 76.5523C92.0331 76.7328 91.6542 76.879 91.2469 76.985C90.8396 77.0911 90.4094 77.1456 89.9565 77.1456C89.2159 77.1456 88.5465 77.0309 87.9426 76.8016C87.3416 76.5752 86.826 76.2427 86.4016 75.81C85.9743 75.3772 85.6438 74.8498 85.4074 74.2308C85.171 73.6117 85.0542 72.9095 85.0542 72.1271C85.0542 71.3275 85.1881 70.6052 85.4558 69.969C85.7236 69.3327 86.0654 68.791 86.4842 68.3497C86.9 67.9083 87.3558 67.5701 87.8515 67.3379C88.3471 67.1058 88.82 66.9883 89.2757 66.9883C89.6175 66.9883 89.9166 67.0313 90.1701 67.1144C90.4237 67.1975 90.6402 67.2949 90.8168 67.401C90.9934 67.507 91.1301 67.6159 91.227 67.722C91.3238 67.828 91.3865 67.9025 91.415 67.9398L91.734 67.1574H93.9131V71.124H91.4263C91.4178 70.9004 91.3808 70.6826 91.3153 70.4677C91.2497 70.2527 91.1614 70.0664 91.0446 69.903C90.9279 69.7397 90.7797 69.6107 90.6003 69.5133C90.4208 69.4158 90.2043 69.3671 89.9537 69.3671C89.703 69.3671 89.478 69.4388 89.2729 69.5849C89.0706 69.7282 88.8969 69.9288 88.7516 70.1782C88.6092 70.4304 88.4981 70.7227 88.4183 71.0581C88.3385 71.3934 88.3015 71.7516 88.3015 72.1328C88.3015 72.4768 88.3442 72.8092 88.4325 73.1245C88.5209 73.4426 88.649 73.7206 88.82 73.9614C88.9909 74.205 89.2017 74.397 89.4523 74.5403C89.703 74.6836 89.9935 74.7581 90.3268 74.7581C90.6145 74.7581 90.888 74.6922 91.1472 74.5632C91.4064 74.4343 91.6343 74.2852 91.828 74.1247C92.0217 73.9614 92.1812 73.8066 92.3065 73.6633C92.4319 73.52 92.5088 73.4283 92.5344 73.391L94.1638 75.1766Z" fill="white"/>
<path d="M94.7192 67.1572H99.106V69.0001H98.3711V75.0618H100.163V73.2877H102.496V76.919H94.7192V75.0618H95.4826V69.0001H94.7192V67.1572Z" fill="white"/>
<path d="M103.051 67.1572H107.466V68.96H106.717V71.9779C106.717 72.5368 106.749 72.9925 106.808 73.3479C106.868 73.7004 106.959 73.9784 107.079 74.179C107.199 74.3797 107.344 74.5172 107.518 74.5918C107.689 74.6663 107.885 74.7035 108.107 74.7035C108.321 74.7035 108.512 74.6749 108.683 74.6118C108.854 74.5516 109.002 74.4255 109.127 74.2335C109.253 74.0415 109.347 73.7692 109.412 73.4081C109.478 73.0498 109.509 72.5683 109.509 71.9607V69.0001H108.76V67.1572H112.87V68.96H112.121V72.3534C112.121 74.0128 111.782 75.228 111.107 75.999C110.432 76.7728 109.441 77.1597 108.136 77.1597C106.729 77.1139 105.661 76.7098 104.928 75.9503C104.196 75.1908 103.832 74.0157 103.832 72.4222V68.9714H103.054V67.1572H103.051Z" fill="white"/>
<path d="M113.423 76.9218V75.1047H114.229V68.957H113.423V67.1543H118.601C119.758 67.1543 120.615 67.3607 121.171 67.7762C121.726 68.1918 122.003 68.7793 122.003 69.5446C122.003 69.8426 121.98 70.1006 121.934 70.3213C121.889 70.5391 121.815 70.7369 121.712 70.9088C121.61 71.0808 121.47 71.2327 121.296 71.3617C121.12 71.4935 120.903 71.6081 120.644 71.7113C120.895 71.7858 121.131 71.8861 121.353 72.0123C121.575 72.1384 121.769 72.2989 121.937 72.4937C122.105 72.6886 122.236 72.9208 122.333 73.1845C122.43 73.451 122.478 73.7491 122.478 74.0844C122.478 75.0703 122.185 75.7926 121.595 76.2425C121.008 76.6954 120.043 76.9189 118.701 76.9189H113.423V76.9218ZM117.103 69.0029V71.098H117.949C118.319 71.098 118.57 71.0034 118.698 70.8114C118.827 70.6194 118.892 70.3585 118.892 70.0232C118.892 69.6965 118.807 69.4471 118.636 69.2694C118.465 69.0917 118.245 69.0029 117.975 69.0029H117.103ZM118.214 75.1076C118.51 75.1076 118.772 75.0015 118.997 74.7923C119.225 74.5831 119.339 74.2879 119.339 73.9038C119.339 73.5513 119.242 73.2561 119.049 73.024C118.855 72.7918 118.562 72.6743 118.174 72.6743H117.106V75.1047H118.214V75.1076Z" fill="white"/>
<path d="M34.4502 48.4678H47.7072V53.3974H43.782V51.4112H40.4349V55.2918H44.6479V58.2582H40.4349V61.0899H42.6967V64.0562H34.4502V61.0899H35.8232V51.4083H34.4502V48.4678Z" fill="white"/>
<path d="M48.5962 48.4678H55.9568V51.4112H54.5809V61.0927H55.9568V64.0591H48.5962V61.0927H49.992V51.4112H48.5962V48.4678Z" fill="white"/>
<path d="M71.7202 48.4678V54.2687H68.4615V51.4141H66.5986V61.0956H68.4387V64.0619H60.1922V61.0956H62.0096V51.4141H60.1039V54.2687H56.8452V48.4678H71.7202Z" fill="white"/>
<path d="M89.5889 51.3453H88.1247V64.062H83.3591L77.7048 55.5642V61.1845H79.4111V64.062H72.606V61.1845H73.9134V51.3482H72.6288V48.4707H78.9924L84.4473 56.659V51.3511H82.9176V48.4736H89.5917V51.3453H89.5889Z" fill="white"/>
<path d="M90.6973 48.4678H104.065V53.3974H100.231V51.4112H96.6849V54.4893H100.898V57.4557H96.6849V61.0927H100.231V59.0177H104.068V64.0591H90.7001V61.0927H92.0959V51.4112H90.7001V48.4678H90.6973Z" fill="white"/>
<path d="M105.176 64.059V58.4386H109.301C109.301 58.9001 109.403 59.2755 109.611 59.565C109.819 59.8545 110.067 60.0809 110.355 60.2443C110.643 60.4076 110.945 60.5194 111.264 60.5796C111.583 60.6398 111.859 60.6684 112.095 60.6684C112.286 60.6684 112.494 60.6541 112.716 60.6226C112.939 60.5939 113.141 60.5366 113.326 60.4563C113.511 60.3732 113.665 60.2643 113.79 60.121C113.916 59.9806 113.978 59.7914 113.978 59.5535C113.978 59.2698 113.767 59.0376 113.346 58.8513C112.924 58.6651 112.4 58.4845 111.771 58.3039C111.141 58.1262 110.457 57.9199 109.72 57.6906C108.979 57.4613 108.298 57.1432 107.669 56.7419C107.039 56.3407 106.515 55.8305 106.093 55.2143C105.672 54.5981 105.461 53.8128 105.461 52.8613C105.461 52.0445 105.635 51.3308 105.982 50.7204C106.33 50.1099 106.766 49.6141 107.29 49.2272C107.814 48.8402 108.384 48.5508 108.996 48.3559C109.609 48.1639 110.19 48.0664 110.737 48.0664C111.195 48.0664 111.654 48.1065 112.11 48.1897C112.568 48.2728 113.004 48.4017 113.417 48.5794C113.83 48.7571 114.203 48.9921 114.537 49.2816C114.87 49.5711 115.146 49.9265 115.368 50.342L115.59 48.4677H119.405V54.0679H115.391C115.391 53.6523 115.317 53.2826 115.169 52.9645C115.021 52.6464 114.819 52.3741 114.559 52.1505C114.3 51.927 113.998 51.7607 113.651 51.649C113.303 51.5372 112.939 51.4827 112.554 51.4827C112.392 51.4827 112.221 51.5085 112.044 51.5601C111.867 51.6117 111.699 51.6862 111.546 51.7837C111.392 51.8811 111.264 52.0044 111.17 52.1505C111.073 52.2996 111.024 52.4715 111.024 52.6635C111.024 53.0505 111.241 53.3715 111.679 53.6237C112.115 53.8759 112.659 54.1138 113.309 54.3373C113.958 54.5609 114.662 54.8016 115.414 55.0624C116.169 55.3232 116.869 55.6471 117.519 56.0312C118.168 56.4181 118.712 56.9024 119.148 57.4814C119.584 58.0603 119.803 58.7912 119.803 59.6682C119.803 60.5452 119.621 61.2818 119.259 61.8779C118.898 62.474 118.43 62.9584 117.864 63.3396C117.294 63.7179 116.662 63.9902 115.969 64.1535C115.274 64.3169 114.596 64.4 113.93 64.4C113.369 64.4 112.85 64.3398 112.377 64.2223C111.904 64.1019 111.474 63.9472 111.093 63.7552C110.708 63.5631 110.363 63.3424 110.061 63.096C109.76 62.8495 109.503 62.603 109.298 62.3479L109.053 64.0647H105.176V64.059Z" fill="white"/>
<path d="M120.917 64.059V58.4386H125.042C125.042 58.9001 125.144 59.2755 125.352 59.565C125.56 59.8545 125.808 60.0809 126.096 60.2443C126.383 60.4076 126.685 60.5194 127.004 60.5796C127.323 60.6398 127.6 60.6684 127.836 60.6684C128.027 60.6684 128.235 60.6541 128.457 60.6226C128.679 60.5939 128.881 60.5366 129.067 60.4563C129.252 60.3732 129.406 60.2643 129.531 60.121C129.656 59.9806 129.719 59.7914 129.719 59.5535C129.719 59.2698 129.508 59.0376 129.087 58.8513C128.665 58.6651 128.141 58.4845 127.511 58.3039C126.882 58.1262 126.198 57.9199 125.46 57.6906C124.72 57.4613 124.039 57.1432 123.409 56.7419C122.78 56.3407 122.256 55.8305 121.834 55.2143C121.413 54.5981 121.202 53.8128 121.202 52.8613C121.202 52.0445 121.376 51.3308 121.723 50.7204C122.071 50.1099 122.506 49.6141 123.031 49.2272C123.555 48.8402 124.124 48.5508 124.737 48.3559C125.349 48.1639 125.93 48.0664 126.477 48.0664C126.936 48.0664 127.395 48.1065 127.85 48.1897C128.309 48.2728 128.745 48.4017 129.158 48.5794C129.571 48.7571 129.944 48.9921 130.277 49.2816C130.611 49.5711 130.887 49.9265 131.109 50.342L131.331 48.4677H135.145V54.0679H131.138C131.138 53.6523 131.063 53.2826 130.915 52.9645C130.767 52.6464 130.565 52.3741 130.306 52.1505C130.047 51.927 129.745 51.7607 129.397 51.649C129.05 51.5372 128.685 51.4827 128.3 51.4827C128.138 51.4827 127.967 51.5085 127.79 51.5601C127.614 51.6117 127.446 51.6862 127.292 51.7837C127.138 51.8811 127.01 52.0044 126.916 52.1505C126.819 52.2996 126.771 52.4715 126.771 52.6635C126.771 53.0505 126.987 53.3715 127.426 53.6237C127.862 53.8759 128.406 54.1138 129.055 54.3373C129.705 54.5609 130.408 54.8016 131.16 55.0624C131.915 55.3232 132.616 55.6471 133.265 56.0312C133.915 56.4181 134.459 56.9024 134.895 57.4814C135.331 58.0603 135.55 58.7912 135.55 59.6682C135.55 60.5452 135.368 61.2818 135.006 61.8779C134.644 62.474 134.177 62.9584 133.61 63.3396C133.04 63.7179 132.408 63.9902 131.716 64.1535C131.021 64.3169 130.343 64.4 129.676 64.4C129.115 64.4 128.597 64.3398 128.124 64.2223C127.651 64.1019 127.221 63.9472 126.839 63.7552C126.455 63.5631 126.11 63.3424 125.808 63.096C125.506 62.8495 125.25 62.603 125.045 62.3479L124.8 64.0647H120.917V64.059Z" fill="white"/>
</svg>
